<svg width="148" height="98" viewBox="0 0 148 98" fill="none" xmlns="http://www.w3.org/2000/svg">
<path opacity="0.08" d="M9.19068 0C9.19068 0 69.8292 24.1988 67.2818 72.4917C67.2818 72.4917 53.8454 88.1529 0 95.3287C0 95.3287 39.0854 94.255 61.4627 83.5174C61.4627 83.5174 40.2093 95.4335 24.0007 98C24.0007 98 91.6821 90.0385 118.03 50.8332C119.629 47.6905 125.223 47.1144 131.766 40.3576C131.766 40.3576 138.734 37.6863 148 37.1101C148 37.1101 138.01 35.3031 133.165 34.9888C133.165 34.9888 117.206 19.0657 95.3034 41.0123C95.3034 41.0123 106.068 35.8268 114.809 36.7958C123.55 37.7648 127.696 38.2362 132.091 37.4768C132.091 37.4768 121.077 41.4837 105.643 45.1502C90.2086 48.8167 87.1367 46.5644 79.919 36.9792C69.2798 22.8894 70.4286 15.8968 9.19068 0Z" fill="#002B37" fill-opacity="0.6"/>
</svg>
