<svg width="140" height="140" viewBox="0 0 140 140" fill="none" xmlns="http://www.w3.org/2000/svg">
<path fill-rule="evenodd" clip-rule="evenodd" d="M75.9979 63.6016C76.4253 63.9513 76.4883 64.5813 76.1386 65.0088L69.1446 73.5569V73.5569C68.8452 73.9229 68.4159 74.1592 67.9466 74.2162C67.4772 74.2733 67.0039 74.1468 66.6256 73.8631L63.9313 71.8422C63.4895 71.5108 63.4 70.884 63.7313 70.4421C64.0627 70.0003 64.6896 69.9108 65.1314 70.2422L67.6976 72.1671L74.5907 63.7423C74.9404 63.3148 75.5705 63.2518 75.9979 63.6016Z" fill="#FF7963"/>
<path d="M73.6238 0.10598C73.7321 0.0777182 73.8452 0.0612325 73.9629 0.0565226C74.0854 0.0471018 74.2055 0.0423914 74.3233 0.0423914C74.441 0.0423914 74.5682 0.0518119 74.7048 0.0706531C74.8414 0.0847838 74.9615 0.11069 75.0651 0.148372L75.1287 0.247286L72.352 9.76427C72.1589 9.78782 71.954 9.8043 71.7374 9.81372C71.5254 9.82314 71.3134 9.82786 71.1015 9.82786C70.7906 9.82786 70.548 9.77604 70.3738 9.67242C70.2042 9.56408 70.077 9.35919 69.9922 9.05774L67.4346 0.247286C67.5806 0.176633 67.736 0.117755 67.9009 0.0706531C68.0705 0.023551 68.2424 0 68.4167 0C68.6428 0 68.8265 0.0612328 68.9678 0.183698C69.1091 0.301454 69.2174 0.506348 69.2928 0.798381L70.6988 5.72997C70.7694 5.97019 70.8401 6.23161 70.9107 6.51422C70.9814 6.79683 71.0497 7.08416 71.1156 7.37619C71.1863 7.66351 71.2499 7.93435 71.3064 8.1887C71.3205 8.24993 71.337 8.28997 71.3558 8.30881C71.3747 8.32294 71.4029 8.33001 71.4406 8.33001L73.6238 0.10598Z" fill="#FF7963"/>
<path d="M78.9441 10.4815C78.7144 10.4942 78.4524 10.4813 78.1582 10.4429C77.8639 10.4044 77.6075 10.3495 77.3888 10.2782L78.0508 5.21305C78.0826 4.97019 78.062 4.78224 77.9892 4.64921C77.9169 4.5115 77.764 4.42739 77.5305 4.39687L77.3623 4.37489C77.3435 4.19192 77.3463 4.00702 77.3707 3.8202C77.3823 3.73147 77.3989 3.641 77.4204 3.54881C77.4426 3.45195 77.4718 3.35601 77.5079 3.26098C77.6931 3.26144 77.8704 3.26798 78.0398 3.28062C78.2091 3.29326 78.3475 3.30659 78.4549 3.32063L78.6651 3.34811C79.0341 3.39633 79.3084 3.55094 79.488 3.81194C79.6724 4.07355 79.738 4.40751 79.6849 4.81385L78.9441 10.4815ZM78.1064 1.40822C78.1381 1.16535 78.2109 0.953973 78.3247 0.774082C78.4248 0.734916 78.5517 0.708754 78.7054 0.695595C78.8644 0.678377 79.0163 0.67923 79.1611 0.698155C79.2966 0.715858 79.4436 0.754075 79.6022 0.812806C79.7614 0.866865 79.8773 0.924772 79.95 0.986525C79.9757 1.08015 79.9924 1.1892 79.9998 1.31369C80.012 1.43878 80.0114 1.55271 79.9979 1.65546C79.9662 1.89832 79.8931 2.11203 79.7787 2.2966C79.6973 2.3382 79.5704 2.36437 79.398 2.37508C79.2302 2.38641 79.0786 2.38322 78.9432 2.36552C78.7984 2.34659 78.6487 2.31041 78.4942 2.25696C78.3444 2.20412 78.2308 2.14652 78.1534 2.08415C78.0903 1.87639 78.0746 1.65108 78.1064 1.40822Z" fill="#FF7963"/>
<path d="M83.6813 10.9164C83.7364 10.7459 83.839 10.5709 83.989 10.3915C84.1403 10.2075 84.2931 10.0727 84.4475 9.98701C84.6977 10.2193 84.9703 10.4404 85.2653 10.6505C85.5604 10.8606 85.8741 11.0098 86.2064 11.0982C86.5614 11.1926 86.8613 11.1919 87.1061 11.0962C87.3555 11.0017 87.511 10.8383 87.5728 10.6062C87.6212 10.4241 87.5971 10.2398 87.5005 10.0533C87.4051 9.86218 87.2341 9.68025 86.9877 9.50747L86.2737 9.00321C85.9899 8.80588 85.739 8.58562 85.521 8.34242C85.3075 8.10044 85.1544 7.83309 85.0617 7.54035C84.9735 7.24883 84.9754 6.9301 85.0674 6.58415C85.18 6.16082 85.3815 5.8245 85.6721 5.57521C85.9683 5.32258 86.3226 5.16336 86.7349 5.09755C87.1529 5.0284 87.5964 5.05617 88.0652 5.18087C88.4431 5.28135 88.8297 5.44023 89.2252 5.65752C89.6265 5.87146 89.9506 6.08197 90.1977 6.28904C90.1572 6.47809 90.0646 6.67036 89.9201 6.86585C89.78 7.06255 89.6295 7.19798 89.4684 7.27211C89.2516 7.09749 88.9944 6.91941 88.6966 6.73786C88.4046 6.55297 88.0902 6.41573 87.7533 6.32615C87.4757 6.2523 87.2345 6.26126 87.0297 6.35302C86.825 6.44479 86.693 6.60219 86.6336 6.82524C86.5864 7.00277 86.6125 7.17053 86.7118 7.32855C86.8123 7.48201 86.9835 7.64452 87.2255 7.81609L87.9818 8.35354C88.4477 8.67242 88.7981 9.04099 89.0329 9.45924C89.2723 9.8787 89.3205 10.357 89.1777 10.8941C89.0082 11.5314 88.6263 11.9684 88.0321 12.2052C87.4379 12.4419 86.7311 12.4513 85.9117 12.2334C85.4292 12.1051 84.999 11.9176 84.6211 11.6708C84.2478 11.4253 83.9345 11.1738 83.6813 10.9164Z" fill="#FF7963"/>
<path d="M91.5775 11.898C91.7816 11.4014 92.061 11.0375 92.4157 10.8064C92.7747 10.5771 93.1751 10.4641 93.6168 10.4674C94.0603 10.4663 94.5172 10.5625 94.9878 10.7558C95.223 10.8525 95.4887 10.9744 95.7847 11.1215C96.0868 11.2661 96.3561 11.4225 96.5924 11.591L96.1976 12.5516C95.9926 12.4062 95.749 12.2679 95.4668 12.1367C95.1864 12.0011 94.9242 11.8832 94.6803 11.7829C94.3012 11.6271 93.9691 11.6052 93.6837 11.7171C93.4028 11.8308 93.1933 12.0554 93.0555 12.3908C92.9516 12.6435 92.9349 12.8887 93.0053 13.1264C93.0774 13.3598 93.2485 13.532 93.5187 13.643C93.828 13.7701 94.1973 13.7945 94.6267 13.7164C95.0604 13.64 95.4799 13.4432 95.8852 13.126L95.6604 14.2863C95.4266 14.4092 95.1522 14.5256 94.8371 14.6355C94.5264 14.7471 94.1882 14.8144 93.8223 14.8372C93.4626 14.8574 93.0933 14.7896 92.7142 14.6339C92.2786 14.4548 91.9564 14.2104 91.7476 13.9005C91.545 13.5881 91.4327 13.2542 91.4106 12.8989C91.393 12.5453 91.4486 12.2117 91.5775 11.898ZM96.6403 15.2848C96.5518 15.4012 96.427 15.5129 96.2659 15.6198C96.1066 15.7224 95.9551 15.7875 95.8114 15.815C95.5392 15.6471 95.3429 15.4493 95.2226 15.2217C95.1066 14.9958 95.0459 14.7595 95.0403 14.5127C95.0409 14.2635 95.08 14.0198 95.1574 13.7817L96.3579 10.8606C96.519 10.4685 96.543 10.1499 96.4299 9.90476C96.3228 9.65708 96.1038 9.46521 95.7727 9.32914C95.4503 9.19665 95.0951 9.10672 94.7072 9.05933C94.3236 9.01374 93.9329 8.98557 93.535 8.97483C93.4701 8.81065 93.4418 8.61314 93.4501 8.38229C93.4584 8.15145 93.4958 7.94275 93.5622 7.75619C93.8553 7.74932 94.1766 7.76678 94.5261 7.80855C94.8817 7.84776 95.2359 7.90926 95.5884 7.99305C95.9428 8.07248 96.266 8.17218 96.5579 8.29213C96.9805 8.4658 97.3207 8.6973 97.5787 8.98663C97.8428 9.27339 98 9.61557 98.0505 10.0132C98.1054 10.4125 98.0281 10.8671 97.8186 11.3768L96.7202 14.0496C96.6217 14.2893 96.5597 14.5082 96.5343 14.7065C96.5149 14.9023 96.5503 15.0951 96.6403 15.2848Z" fill="#FF7963"/>
<path d="M113.943 19.9603C113.522 20.5153 113.056 20.8981 112.547 21.1087C112.041 21.3156 111.518 21.365 110.979 21.257C110.446 21.1481 109.925 20.8999 109.415 20.5123L107.733 19.234L108.481 18.2496C108.604 18.3371 108.776 18.4616 108.996 18.6231C109.223 18.7838 109.442 18.9439 109.652 19.1035C109.868 19.2622 110.029 19.3815 110.134 19.4613C110.494 19.7349 110.831 19.8637 111.145 19.8478C111.459 19.8319 111.739 19.7315 111.986 19.5465C112.237 19.3644 112.445 19.1646 112.61 18.9471C112.778 18.7258 112.915 18.4719 113.021 18.1852C113.13 17.9014 113.149 17.6081 113.077 17.3052C113.008 16.9986 112.794 16.7085 112.434 16.4349C112.28 16.3181 112.104 16.1841 111.905 16.0331C111.713 15.8811 111.528 15.7349 111.351 15.5943L106.243 22.3164C106.127 22.2582 106.008 22.1887 105.886 22.1078C105.764 22.027 105.653 21.9481 105.552 21.8711C105.465 21.8056 105.365 21.7235 105.251 21.6248C105.136 21.5261 105.038 21.4303 104.954 21.3374L110.747 13.7153L110.876 13.6977C111.316 14.0208 111.727 14.3211 112.108 14.5986C112.491 14.8724 112.876 15.156 113.263 15.4496C113.769 15.8343 114.146 16.2687 114.393 16.7526C114.647 17.2356 114.743 17.7487 114.679 18.2918C114.619 18.8379 114.374 19.394 113.943 19.9603Z" fill="#FF7963"/>
<path d="M119.252 24.7307C119.11 24.8747 118.918 25.0257 118.675 25.1835C118.433 25.3414 118.191 25.4494 117.948 25.5073C117.894 25.421 117.835 25.3398 117.771 25.2635C117.708 25.1873 117.642 25.1094 117.575 25.0298C117.394 24.851 117.197 24.7321 116.984 24.6734C116.774 24.6113 116.559 24.5908 116.339 24.612C116.123 24.6365 115.905 24.6894 115.685 24.7705C115.473 24.8517 115.268 24.9411 115.072 25.0387L115.11 24.6888C115.359 24.4576 115.634 24.2462 115.936 24.0547C116.238 23.8632 116.551 23.7216 116.873 23.6298C117.202 23.5381 117.527 23.5246 117.847 23.5894C118.171 23.6576 118.476 23.8341 118.764 24.1189C118.865 24.2183 118.952 24.3144 119.026 24.4072C119.103 24.5034 119.178 24.6112 119.252 24.7307ZM115.51 22.0637C115.64 21.9864 115.801 21.9272 115.994 21.8861C116.187 21.8451 116.352 21.8358 116.489 21.8584C116.777 22.2764 116.875 22.7072 116.781 23.1507C116.686 23.5942 116.449 24.0352 116.068 24.4736L112.596 27.9852C112.405 27.8564 112.206 27.6893 111.998 27.4839C111.787 27.2753 111.615 27.0747 111.481 26.8823L114.859 23.4662C115.127 23.1949 115.305 22.9341 115.394 22.6838C115.483 22.4335 115.521 22.2268 115.51 22.0637Z" fill="#FF7963"/>
<path d="M122.455 34.4173C121.882 34.8626 121.304 35.1629 120.721 35.3182C120.144 35.4743 119.591 35.4656 119.063 35.2921C118.537 35.1223 118.067 34.7715 117.653 34.2398C117.237 33.7044 117.013 33.1595 116.982 32.6051C116.95 32.0507 117.081 31.5133 117.375 30.9928C117.672 30.4694 118.103 29.9879 118.668 29.5484C119.241 29.1031 119.815 28.8023 120.392 28.6462C120.975 28.4909 121.53 28.4982 122.056 28.668C122.585 28.8349 123.057 29.1842 123.47 29.7159C123.887 30.2513 124.111 30.7962 124.142 31.3506C124.176 31.9087 124.045 32.4495 123.748 32.9729C123.455 33.4934 123.023 33.9749 122.455 34.4173ZM119.661 30.8256C119.323 31.0887 119.028 31.369 118.776 31.6664C118.53 31.9647 118.38 32.2697 118.324 32.5816C118.272 32.8906 118.366 33.1995 118.606 33.5081C118.843 33.8129 119.116 33.9763 119.426 33.9983C119.742 34.021 120.074 33.9502 120.424 33.7858C120.777 33.6185 121.123 33.4032 121.461 33.1401C121.8 32.877 122.093 32.5948 122.343 32.2937C122.592 31.9925 122.744 31.686 122.8 31.3741C122.859 31.0659 122.769 30.7594 122.532 30.4545C122.292 30.1459 122.014 29.9802 121.698 29.9575C121.382 29.9348 121.048 30.007 120.694 30.1743C120.344 30.3453 120 30.5624 119.661 30.8256Z" fill="#FF7963"/>
<path d="M126.278 39.5959C126.558 39.4482 126.795 39.2812 126.992 39.0949C127.192 38.9061 127.318 38.696 127.367 38.4646C127.417 38.2333 127.359 37.9754 127.192 37.6911C126.975 37.3215 126.627 37.1433 126.149 37.1566C125.674 37.1675 125.072 37.3876 124.341 37.817C123.626 38.2368 123.174 38.6579 122.985 39.0802C122.798 39.5066 122.828 39.929 123.074 40.3473C123.236 40.6235 123.451 40.8465 123.72 41.0163C123.992 41.1901 124.263 41.3364 124.535 41.4553C124.535 41.6136 124.489 41.7941 124.395 41.9968C124.307 42.2012 124.2 42.3626 124.073 42.4809C123.638 42.3646 123.224 42.1623 122.831 41.8743C122.438 41.5862 122.114 41.2249 121.859 40.7903C121.601 40.3517 121.459 39.9242 121.433 39.508C121.414 39.0934 121.489 38.6998 121.658 38.3274C121.827 37.955 122.07 37.6071 122.389 37.2837C122.713 36.962 123.091 36.6747 123.521 36.4219C124.281 35.9758 124.969 35.7383 125.585 35.7094C126.204 35.6845 126.739 35.8046 127.19 36.0698C127.641 36.3349 127.992 36.6828 128.245 37.1133C128.46 37.4789 128.595 37.8339 128.65 38.1786C128.705 38.5233 128.696 38.8427 128.623 39.1368C128.554 39.4286 128.437 39.6856 128.272 39.9079C128.108 40.1301 127.912 40.308 127.685 40.4416C127.457 40.5751 127.245 40.6232 127.048 40.5858C126.858 40.5501 126.695 40.4165 126.559 40.185C126.494 40.0753 126.441 39.9755 126.399 39.8854C126.357 39.7953 126.317 39.6988 126.278 39.5959Z" fill="#FF7963"/>
<path d="M127.35 44.7885L128.384 44.35L129.683 47.4137L129.852 47.342C130.138 47.2206 130.383 47.0682 130.587 46.8846C130.796 46.7036 130.934 46.4917 131 46.2489C131.07 46.0042 131.043 45.7345 130.918 45.4396C130.738 45.0146 130.423 44.7744 129.975 44.7188C129.533 44.6658 128.996 44.7735 128.363 45.042L127.92 45.2295C127.526 45.3969 127.187 45.5867 126.903 45.799C126.621 46.0156 126.432 46.2675 126.333 46.5548C126.24 46.8401 126.275 47.178 126.441 47.5682C126.579 47.8935 126.757 48.1864 126.975 48.447C127.197 48.7058 127.434 48.9454 127.686 49.1659C127.621 49.3265 127.518 49.4804 127.375 49.6277C127.235 49.7793 127.096 49.8972 126.958 49.9814C126.604 49.7629 126.268 49.4654 125.95 49.0888C125.631 48.7121 125.377 48.2983 125.185 47.8473C124.963 47.3226 124.868 46.846 124.901 46.4175C124.939 45.9872 125.073 45.603 125.303 45.265C125.537 44.9251 125.837 44.6241 126.202 44.362C126.568 44.1043 126.97 43.8826 127.408 43.6968C128.059 43.421 128.682 43.2744 129.279 43.2568C129.877 43.2437 130.411 43.3753 130.881 43.6517C131.353 43.9325 131.72 44.3807 131.981 44.9965C132.22 45.5602 132.298 46.0875 132.214 46.5782C132.131 47.069 131.921 47.5033 131.585 47.8811C131.253 48.2571 130.827 48.5555 130.307 48.7761C130.086 48.8699 129.893 48.9412 129.73 48.9901C129.572 49.0414 129.391 49.085 129.187 49.1207L127.35 44.7885Z" fill="#FF7963"/>
<path d="M127.437 52.2005C127.612 52.1617 127.814 52.1615 128.045 52.2001C128.28 52.2373 128.474 52.3008 128.626 52.3906C128.552 52.7239 128.5 53.071 128.468 53.4318C128.436 53.7926 128.467 54.1386 128.559 54.4699C128.657 54.8239 128.809 55.0822 129.016 55.2448C129.224 55.4119 129.443 55.4633 129.675 55.399C129.856 55.3486 130.003 55.2344 130.115 55.0567C130.231 54.8776 130.302 54.6381 130.326 54.3381L130.399 53.4671C130.426 53.1224 130.488 52.7945 130.588 52.4834C130.688 52.1768 130.841 51.9093 131.047 51.6811C131.254 51.4575 131.529 51.2977 131.874 51.2019C132.296 51.0846 132.688 51.088 133.05 51.2123C133.418 51.3398 133.735 51.5647 134.001 51.8869C134.272 52.2123 134.473 52.6088 134.602 53.0762C134.707 53.4529 134.766 53.8667 134.779 54.3178C134.798 54.7721 134.78 55.1583 134.727 55.4762C134.543 55.537 134.331 55.5546 134.089 55.5289C133.848 55.5077 133.655 55.4465 133.51 55.3452C133.551 55.0698 133.574 54.7578 133.58 54.4091C133.591 54.0637 133.55 53.7231 133.457 53.3872C133.38 53.1104 133.25 52.907 133.067 52.7769C132.884 52.6468 132.682 52.6127 132.46 52.6745C132.283 52.7237 132.151 52.8311 132.065 52.9967C131.984 53.1612 131.93 53.3911 131.905 53.6866L131.824 54.6109C131.785 55.1742 131.645 55.663 131.403 56.0773C131.163 56.4961 130.775 56.7799 130.239 56.9287C129.604 57.1053 129.034 56.9974 128.529 56.6049C128.024 56.2124 127.658 55.6077 127.431 54.7908C127.297 54.3097 127.241 53.8438 127.262 53.393C127.285 52.9467 127.343 52.5492 127.437 52.2005Z" fill="#FF7963"/>
<path d="M129.226 59.8578C129.405 59.842 129.606 59.8681 129.83 59.9363C130.058 60.0037 130.242 60.0918 130.381 60.2005C130.265 60.5215 130.168 60.8588 130.09 61.2124C130.011 61.5661 129.997 61.9131 130.045 62.2535C130.097 62.6173 130.214 62.8932 130.398 63.0811C130.582 63.2738 130.793 63.3532 131.031 63.3194C131.218 63.2929 131.378 63.1988 131.512 63.0371C131.651 62.8746 131.752 62.6462 131.814 62.3518L132 61.4977C132.071 61.1594 132.176 60.8424 132.314 60.5467C132.454 60.2557 132.64 60.0104 132.874 59.8107C133.108 59.6158 133.402 59.4931 133.756 59.4427C134.19 59.3811 134.578 59.4354 134.921 59.6055C135.269 59.7797 135.554 60.0437 135.776 60.3976C136.003 60.7554 136.15 61.1746 136.218 61.6549C136.273 62.0419 136.278 62.4599 136.232 62.9089C136.192 63.3618 136.125 63.7424 136.031 64.0508C135.841 64.0873 135.628 64.0771 135.391 64.0203C135.155 63.9682 134.972 63.8824 134.841 63.7631C134.917 63.4954 134.981 63.189 135.031 62.844C135.088 62.503 135.091 62.1599 135.042 61.8148C135.002 61.5304 134.899 61.3118 134.735 61.1591C134.571 61.0064 134.374 60.9463 134.146 60.9788C133.964 61.0046 133.819 61.0941 133.713 61.2472C133.611 61.3997 133.528 61.6208 133.464 61.9105L133.265 62.8166C133.153 63.3701 132.951 63.8365 132.657 64.216C132.365 64.6001 131.943 64.8313 131.393 64.9094C130.74 65.0022 130.188 64.8212 129.739 64.3666C129.289 63.9119 129.004 63.2649 128.885 62.4255C128.815 61.9312 128.819 61.4619 128.899 61.0176C128.979 60.5781 129.088 60.1915 129.226 59.8578Z" fill="#FF7963"/>
<path d="M129.534 70.7918C129.489 70.5662 129.465 70.305 129.462 70.0083C129.459 69.7115 129.477 69.4499 129.517 69.2234L134.625 69.1665C134.87 69.1637 135.053 69.1169 135.174 69.0261C135.3 68.9352 135.362 68.772 135.36 68.5365L135.358 68.3669C135.536 68.3225 135.72 68.2993 135.908 68.2972C135.998 68.2962 136.089 68.2999 136.184 68.3083C136.283 68.3166 136.382 68.332 136.481 68.3544C136.507 68.5378 136.525 68.7143 136.536 68.8837C136.548 69.0532 136.554 69.1921 136.555 69.3004L136.558 69.5123C136.562 69.8844 136.447 70.1778 136.214 70.3923C135.981 70.6116 135.66 70.7235 135.25 70.7281L129.534 70.7918ZM138.4 68.6863C138.644 68.6836 138.864 68.7259 139.058 68.8132C139.111 68.9069 139.155 69.0288 139.189 69.1792C139.229 69.3342 139.249 69.4847 139.251 69.6307C139.252 69.7673 139.235 69.9182 139.199 70.0835C139.168 70.2487 139.127 70.3716 139.076 70.4523C138.987 70.491 138.882 70.5228 138.759 70.5477C138.637 70.5773 138.524 70.5927 138.421 70.5938C138.176 70.5966 137.954 70.5543 137.755 70.467C137.703 70.3922 137.659 70.2702 137.624 70.1011C137.589 69.9366 137.571 69.786 137.569 69.6495C137.568 69.5034 137.583 69.3502 137.614 69.1897C137.645 69.0339 137.686 68.9133 137.737 68.828C137.934 68.7363 138.155 68.6891 138.4 68.6863Z" fill="#FF7963"/>
<path d="M136.173 77.1562C136.135 77.4743 136.008 77.6867 135.791 77.7937C135.578 77.9059 135.299 77.9413 134.953 77.9L129.06 77.1964C129.044 76.9716 129.054 76.7118 129.089 76.4172C129.124 76.1225 129.176 75.8631 129.246 75.639L136.163 76.4648L136.243 76.5669L136.173 77.1562ZM130.1 81.4191C129.852 81.3895 129.613 81.38 129.385 81.3906C129.16 81.4018 128.961 81.4444 128.786 81.5184C128.702 81.3897 128.639 81.2352 128.599 81.0549C128.554 80.874 128.543 80.6901 128.565 80.503C128.602 80.1943 128.712 79.9869 128.896 79.8807C129.079 79.7792 129.332 79.7477 129.654 79.7863L133.141 80.2025C133.59 80.2562 133.922 80.2388 134.136 80.1506C134.355 80.0629 134.485 79.853 134.525 79.521C134.551 79.3012 134.526 79.0539 134.449 78.7791C134.373 78.5044 134.248 78.2381 134.075 77.9802C133.902 77.7223 133.682 77.5015 133.414 77.3178L134.881 77.4929C135.198 77.8533 135.457 78.2685 135.657 78.7383C135.856 79.2127 135.926 79.7025 135.866 80.2076C135.814 80.6426 135.668 80.9858 135.43 81.2372C135.191 81.4885 134.888 81.6587 134.522 81.7478C134.156 81.8369 133.753 81.8552 133.313 81.8027L130.1 81.4191Z" fill="#FF7963"/>
<path d="M132.618 90.6241C132.526 90.4501 132.376 90.305 132.167 90.1888C131.957 90.0772 131.722 89.9883 131.462 89.9222L127.47 88.9079C126.927 88.7699 126.477 88.6288 126.119 88.4847C125.761 88.3451 125.469 88.1931 125.244 88.0289C125.017 87.8693 124.833 87.6938 124.692 87.5024C124.466 87.2068 124.321 86.8396 124.258 86.4007C124.19 85.9606 124.222 85.4803 124.354 84.9599C124.462 84.5353 124.616 84.1201 124.817 83.7141C125.012 83.3071 125.215 82.96 125.424 82.6729C125.614 82.7262 125.81 82.8172 126.01 82.9459C126.206 83.0734 126.356 83.2111 126.46 83.3589C126.254 83.6128 126.07 83.8989 125.906 84.217C125.742 84.5396 125.625 84.8379 125.555 85.1118C125.442 85.5547 125.438 85.9156 125.542 86.1948C125.646 86.4739 125.826 86.6923 126.083 86.8497C126.335 87.0061 126.63 87.1272 126.967 87.213L132.028 88.4987C132.484 88.6147 132.861 88.8172 133.157 89.1062C133.451 89.3998 133.578 89.7892 133.538 90.2746C133.435 90.3747 133.291 90.4599 133.108 90.53C132.925 90.6001 132.762 90.6315 132.618 90.6241ZM131.425 83.8988C132.233 84.1041 132.87 84.4018 133.334 84.792C133.799 85.1822 134.11 85.6112 134.268 86.0791C134.431 86.5481 134.456 87.004 134.344 87.4468C134.24 87.8531 134.09 88.1867 133.893 88.4475C133.694 88.713 133.474 88.9269 133.234 89.0893C132.993 89.2518 132.756 89.3834 132.521 89.4842L131.289 88.938C131.743 88.7958 132.136 88.5819 132.466 88.2964C132.795 88.0155 133.001 87.7107 133.084 87.382C133.15 87.1218 133.12 86.8687 132.993 86.6226C132.869 86.3822 132.644 86.1597 132.317 85.9551C131.994 85.7516 131.566 85.5821 131.032 85.4464C130.242 85.2457 129.643 85.2149 129.233 85.3538C128.828 85.4939 128.585 85.7238 128.504 86.0433C128.413 86.3994 128.441 86.7685 128.587 87.1506C128.738 87.5339 128.974 87.8661 129.296 88.1472L128.088 88.0809C127.906 87.8986 127.742 87.6649 127.596 87.3799C127.448 87.0994 127.343 86.7883 127.279 86.4465C127.22 86.1058 127.235 85.7574 127.326 85.4014C127.461 84.8672 127.721 84.4592 128.103 84.1774C128.489 83.9013 128.965 83.7403 129.531 83.6945C130.1 83.6544 130.731 83.7225 131.425 83.8988Z" fill="#FF7963"/>
<path d="M130.797 102.721L130.832 102.845L130.109 104.141L128.949 103.494C128.776 103.398 128.631 103.32 128.514 103.26C128.4 103.202 128.259 103.126 128.091 103.032L123.488 100.464C123.372 100.4 123.265 100.337 123.164 100.276C123.068 100.217 122.958 100.153 122.834 100.084L121.662 99.43L121.978 98.8623C122.118 98.6114 122.305 98.4564 122.537 98.3973C122.774 98.3405 123.026 98.3867 123.293 98.5358L130.797 102.721ZM124.821 105.18C124.717 105.155 124.606 105.117 124.488 105.067C124.37 105.018 124.272 104.971 124.194 104.928C124.116 104.884 124.027 104.826 123.927 104.754C123.827 104.682 123.736 104.608 123.655 104.53L124.911 102.278C124.964 102.183 125.033 102.06 125.118 101.908C125.207 101.758 125.296 101.602 125.386 101.442C125.479 101.284 125.56 101.143 125.629 101.02L126.765 101.653C126.7 101.779 126.623 101.922 126.533 102.082C126.448 102.245 126.363 102.402 126.278 102.555C126.197 102.709 126.13 102.834 126.078 102.928L124.821 105.18ZM128.034 107.862C127.92 107.825 127.814 107.783 127.717 107.734C127.618 107.689 127.529 107.645 127.451 107.602C127.369 107.556 127.274 107.489 127.166 107.402C127.06 107.322 126.964 107.233 126.878 107.136L128.478 104.267C128.531 104.172 128.599 104.049 128.684 103.897C128.769 103.744 128.858 103.589 128.952 103.431C129.046 103.273 129.129 103.133 129.202 103.012L130.374 103.666L128.034 107.862ZM120.643 104.071C120.223 103.837 119.955 103.602 119.84 103.365C119.721 103.132 119.763 102.834 119.965 102.472L121.927 98.9549L123.068 99.5916C122.966 99.8041 122.865 100.015 122.765 100.223C122.665 100.432 122.542 100.665 122.398 100.925L120.643 104.071Z" fill="#FF7963"/>
<path d="M124.086 108.274C124.081 108.47 124.046 108.663 123.98 108.855C123.914 109.046 123.832 109.208 123.734 109.341C123.616 109.5 123.491 109.601 123.359 109.644C123.225 109.69 123.062 109.708 122.872 109.695L115.264 109.239C115.275 109.059 115.311 108.868 115.372 108.667C115.43 108.47 115.513 108.3 115.62 108.156C115.735 108.001 115.862 107.896 116.002 107.842C116.14 107.791 116.3 107.772 116.484 107.786L124.086 108.274ZM121.708 111.867C121.678 111.939 121.632 112.025 121.569 112.125C121.51 112.228 121.449 112.323 121.384 112.41C121.291 112.535 121.2 112.643 121.109 112.733C121.015 112.828 120.922 112.906 120.83 112.966L120.71 112.939L119.249 109.064L119.158 108.487L117.866 105.309C117.889 105.238 117.934 105.149 118.003 105.041C118.064 104.935 118.129 104.836 118.196 104.745C118.283 104.628 118.378 104.52 118.482 104.42C118.581 104.318 118.68 104.239 118.78 104.184L118.899 104.202L120.507 108.459L120.595 109.087L121.708 111.867Z" fill="#FF7963"/>
<path d="M118.096 116.02C117.864 116.26 117.612 116.361 117.342 116.322C117.068 116.287 116.791 116.133 116.51 115.861L110.857 110.394C110.606 110.152 110.468 109.933 110.441 109.737C110.411 109.544 110.511 109.329 110.74 109.092L111.153 108.666L111.283 108.663L118.413 115.56L118.415 115.689L118.096 116.02ZM111.914 117.402C111.314 116.822 110.91 116.248 110.701 115.678C110.488 115.112 110.429 114.584 110.524 114.092C110.623 113.604 110.831 113.196 111.148 112.868C111.466 112.539 111.823 112.305 112.221 112.165C112.622 112.029 113.019 111.922 113.415 111.846L114.146 112.828C113.807 112.873 113.455 112.946 113.09 113.045C112.725 113.151 112.428 113.323 112.199 113.56C112.019 113.746 111.925 113.976 111.916 114.249C111.904 114.526 111.987 114.833 112.166 115.169C112.348 115.509 112.637 115.871 113.034 116.254C113.426 116.634 113.782 116.899 114.101 117.051C114.417 117.205 114.694 117.271 114.934 117.247C115.177 117.226 115.375 117.136 115.529 116.977C115.683 116.818 115.804 116.604 115.893 116.336C115.979 116.072 116 115.768 115.958 115.426C115.919 115.087 115.784 114.721 115.555 114.328L116.578 114.866C116.753 115.153 116.867 115.489 116.92 115.874C116.973 116.267 116.944 116.662 116.834 117.06C116.725 117.465 116.516 117.826 116.208 118.145C115.828 118.537 115.402 118.758 114.93 118.806C114.458 118.853 113.965 118.753 113.451 118.506C112.937 118.264 112.425 117.896 111.914 117.402Z" fill="#FF7963"/>
<path d="M109.067 118.827L109.766 119.706L107.162 121.778L107.277 121.921C107.47 122.165 107.683 122.36 107.914 122.507C108.144 122.66 108.386 122.736 108.637 122.735C108.892 122.737 109.144 122.638 109.395 122.439C109.756 122.152 109.903 121.785 109.837 121.338C109.77 120.898 109.522 120.409 109.094 119.871L108.795 119.495C108.528 119.159 108.254 118.883 107.974 118.667C107.689 118.454 107.396 118.338 107.093 118.321C106.793 118.307 106.477 118.431 106.145 118.695C105.869 118.915 105.634 119.165 105.441 119.445C105.252 119.728 105.084 120.021 104.939 120.323C104.767 120.304 104.591 120.245 104.411 120.147C104.227 120.053 104.077 119.95 103.958 119.84C104.074 119.44 104.271 119.037 104.549 118.629C104.826 118.222 105.157 117.866 105.54 117.561C105.986 117.206 106.42 116.987 106.842 116.904C107.266 116.825 107.672 116.851 108.06 116.982C108.45 117.117 108.82 117.325 109.17 117.607C109.517 117.891 109.838 118.219 110.134 118.591C110.574 119.144 110.882 119.705 111.059 120.275C111.232 120.848 111.248 121.398 111.108 121.925C110.964 122.455 110.63 122.928 110.106 123.345C109.627 123.726 109.14 123.942 108.645 123.993C108.15 124.044 107.675 123.958 107.221 123.735C106.77 123.516 106.368 123.186 106.016 122.744C105.867 122.556 105.747 122.389 105.656 122.245C105.564 122.107 105.474 121.944 105.385 121.757L109.067 118.827Z" fill="#FF7963"/>
<path d="M100.907 129.095C100.802 128.921 100.703 128.698 100.61 128.424C100.517 128.15 100.472 127.889 100.475 127.639C100.572 127.608 100.665 127.571 100.755 127.528C100.845 127.485 100.936 127.441 101.03 127.396C101.248 127.264 101.411 127.103 101.521 126.91C101.633 126.722 101.706 126.518 101.739 126.3C101.769 126.085 101.771 125.86 101.746 125.628C101.72 125.402 101.684 125.182 101.637 124.968L101.967 125.091C102.13 125.388 102.267 125.707 102.379 126.047C102.49 126.387 102.55 126.725 102.56 127.06C102.567 127.401 102.501 127.719 102.359 128.014C102.213 128.31 101.967 128.563 101.62 128.772C101.499 128.845 101.384 128.906 101.276 128.955C101.164 129.006 101.041 129.052 100.907 129.095ZM104.413 126.125C104.456 126.269 104.474 126.44 104.466 126.637C104.458 126.834 104.427 126.996 104.371 127.123C103.895 127.3 103.453 127.288 103.047 127.088C102.64 126.888 102.271 126.549 101.94 126.072L99.3916 121.842C99.5634 121.689 99.7744 121.537 100.025 121.386C100.279 121.233 100.516 121.115 100.735 121.032L103.214 125.148C103.411 125.475 103.62 125.712 103.841 125.859C104.061 126.007 104.252 126.095 104.413 126.125Z" fill="#FF7963"/>
<path d="M96.9661 132.176C97.1076 132.499 97.1546 132.754 97.1071 132.939C97.0571 133.131 96.8833 133.292 96.5855 133.422L96.0352 133.662L95.9236 133.619L93.011 126.957C92.9355 126.785 92.8341 126.665 92.7068 126.597C92.5771 126.535 92.4152 126.547 92.221 126.632L91.3535 127.011C91.1796 126.825 91.036 126.603 90.9228 126.344C90.9002 126.292 90.8787 126.237 90.8585 126.179C90.834 126.123 90.8209 126.069 90.8193 126.019C91.0219 125.894 91.2489 125.767 91.5003 125.636C91.7454 125.503 91.9954 125.381 92.25 125.27C92.7118 125.068 93.1166 125.03 93.4645 125.155C93.8081 125.283 94.0818 125.579 94.2856 126.045L96.9661 132.176ZM93.501 132.434C93.3829 132.27 93.287 132.103 93.2134 131.935C93.1342 131.754 93.0762 131.568 93.0396 131.379L95.2159 130.466L96.9949 129.649C97.1136 129.803 97.2125 129.971 97.2918 130.152C97.3653 130.32 97.4202 130.504 97.4563 130.705L95.6295 131.465L93.501 132.434Z" fill="#FF7963"/>
<path d="M79.0427 129.846C79.0556 129.93 79.0622 130.051 79.0625 130.208C79.0628 130.365 79.0464 130.492 79.0134 130.587C78.9196 130.659 78.7917 130.726 78.6298 130.789C78.4633 130.853 78.3055 130.896 78.1565 130.919C78.0075 130.942 77.8417 130.948 77.6591 130.938C77.4765 130.928 77.3343 130.902 77.2326 130.86C77.1725 130.779 77.1213 130.663 77.0791 130.512C77.0323 130.362 77.0024 130.245 76.9896 130.161C76.9767 130.078 76.9701 129.957 76.9698 129.8C76.9656 129.648 76.9796 129.522 77.0119 129.422C77.0918 129.352 77.2196 129.285 77.3955 129.22C77.5667 129.156 77.7268 129.112 77.8758 129.089C78.0248 129.066 78.1882 129.06 78.3662 129.071C78.5395 129.083 78.6817 129.108 78.7927 129.148C78.8535 129.234 78.907 129.35 78.9532 129.496C79 129.646 79.0299 129.763 79.0427 129.846Z" fill="#FF7963"/>
<path d="M57.9063 138.605C57.7955 138.621 57.6813 138.625 57.5638 138.617C57.441 138.614 57.3211 138.605 57.204 138.593C57.0869 138.58 56.9615 138.557 56.8277 138.524C56.6934 138.495 56.5768 138.456 56.4778 138.408L56.4253 138.303L60.2087 129.139C60.4033 129.136 60.6088 129.142 60.8252 129.156C61.0369 129.169 61.2482 129.188 61.4589 129.21C61.768 129.244 62.0036 129.321 62.1657 129.443C62.3226 129.569 62.4271 129.786 62.4789 130.095L64.0748 139.13C63.922 139.184 63.7612 139.226 63.5922 139.255C63.4186 139.284 63.2451 139.289 63.0718 139.27C62.8471 139.246 62.671 139.165 62.5437 139.028C62.4159 138.896 62.3302 138.68 62.2866 138.382L61.4188 133.328C61.3744 133.081 61.3323 132.814 61.2924 132.525C61.2525 132.237 61.2155 131.944 61.1813 131.646C61.142 131.353 61.1079 131.077 61.079 130.818C61.0715 130.756 61.0595 130.714 61.0427 130.693C61.0255 130.677 60.9982 130.667 60.9607 130.663L57.9063 138.605Z" fill="#FF7963"/>
<path d="M53.732 127.718C53.9617 127.73 54.2207 127.771 54.5092 127.841C54.7976 127.91 55.0466 127.993 55.2564 128.087L54.0538 133.052C53.9961 133.29 53.9963 133.479 54.0545 133.619C54.1115 133.764 54.2545 133.864 54.4834 133.919L54.6482 133.959C54.6472 134.143 54.6246 134.326 54.5802 134.51C54.5592 134.597 54.533 134.685 54.5016 134.774C54.4692 134.868 54.4299 134.96 54.3837 135.051C54.1996 135.03 54.0241 135.005 53.857 134.974C53.69 134.943 53.5539 134.915 53.4486 134.89L53.2426 134.84C52.8809 134.752 52.6248 134.569 52.4743 134.29C52.3191 134.01 52.2898 133.671 52.3863 133.273L53.732 127.718ZM53.5896 136.828C53.5319 137.067 53.4369 137.269 53.3044 137.436C53.2007 137.464 53.0716 137.476 52.9174 137.473C52.7575 137.473 52.6065 137.455 52.4646 137.421C52.3319 137.389 52.1898 137.335 52.0385 137.26C51.886 137.189 51.777 137.119 51.7113 137.05C51.6958 136.954 51.691 136.844 51.6969 136.719C51.6983 136.593 51.7112 136.48 51.7356 136.379C51.7932 136.141 51.8888 135.937 52.0224 135.766C52.1078 135.733 52.2368 135.721 52.4094 135.728C52.5774 135.735 52.7278 135.755 52.8605 135.787C53.0024 135.821 53.1473 135.873 53.2952 135.943C53.4385 136.012 53.5453 136.081 53.6155 136.151C53.6559 136.365 53.6472 136.59 53.5896 136.828Z" fill="#FF7963"/>
<path d="M49.0691 126.776C48.996 126.94 48.8752 127.103 48.7067 127.265C48.5365 127.431 48.3701 127.549 48.2074 127.618C47.9837 127.36 47.7364 127.111 47.4656 126.87C47.1949 126.63 46.8991 126.447 46.5782 126.324C46.2353 126.192 45.9371 126.16 45.6834 126.229C45.4254 126.296 45.2532 126.442 45.1668 126.666C45.0991 126.842 45.1033 127.028 45.1793 127.224C45.2536 127.424 45.404 127.623 45.6304 127.821L46.2861 128.399C46.547 128.626 46.7728 128.872 46.9634 129.137C47.1496 129.401 47.2731 129.683 47.3338 129.984C47.3902 130.283 47.354 130.6 47.2254 130.934C47.0679 131.343 46.8314 131.656 46.5158 131.872C46.1941 132.092 45.8247 132.212 45.4078 132.233C44.9847 132.257 44.5468 132.181 44.0941 132.007C43.7292 131.867 43.3619 131.667 42.9921 131.409C42.6161 131.153 42.3165 130.909 42.093 130.676C42.1536 130.493 42.2663 130.311 42.4311 130.133C42.5915 129.952 42.7557 129.834 42.9238 129.777C43.1205 129.974 43.3572 130.179 43.6337 130.391C43.9041 130.606 44.202 130.777 44.5273 130.902C44.7954 131.005 45.0362 131.022 45.2496 130.953C45.463 130.884 45.6112 130.742 45.6941 130.526C45.7602 130.355 45.7523 130.185 45.6705 130.017C45.5871 129.854 45.4343 129.674 45.2122 129.477L44.5181 128.862C44.0891 128.495 43.7803 128.091 43.5918 127.65C43.399 127.207 43.4024 126.726 43.6021 126.207C43.8392 125.592 44.2658 125.199 44.882 125.027C45.4982 124.856 46.2019 124.922 46.9931 125.227C47.459 125.406 47.8666 125.639 48.2158 125.925C48.5606 126.209 48.8451 126.493 49.0691 126.776Z" fill="#FF7963"/>
<path d="M41.3241 124.952C41.0678 125.423 40.7509 125.755 40.3735 125.947C39.9919 126.136 39.5817 126.206 39.1429 126.155C38.7018 126.108 38.2578 125.963 37.8108 125.721C37.5873 125.599 37.3363 125.45 37.0578 125.271C36.7729 125.095 36.5221 124.911 36.3052 124.718L36.801 123.805C36.9892 123.972 37.2165 124.136 37.483 124.296C37.7472 124.461 37.9951 124.607 38.2269 124.733C38.587 124.928 38.9149 124.986 39.2106 124.905C39.5022 124.822 39.7345 124.622 39.9076 124.303C40.038 124.063 40.081 123.821 40.0366 123.577C39.99 123.337 39.8383 123.148 39.5817 123.008C39.2879 122.849 38.9233 122.785 38.488 122.816C38.0486 122.845 37.6104 122.996 37.1733 123.268L37.5215 122.138C37.7672 122.041 38.0525 121.955 38.3776 121.88C38.6985 121.802 39.042 121.772 39.4082 121.788C39.768 121.807 40.1279 121.914 40.488 122.109C40.9019 122.334 41.196 122.612 41.3702 122.942C41.5381 123.275 41.6139 123.619 41.5976 123.975C41.5771 124.328 41.486 124.654 41.3241 124.952ZM36.6546 121.04C36.7552 120.934 36.8913 120.836 37.0629 120.747C37.2323 120.663 37.3899 120.614 37.5357 120.602C37.7883 120.798 37.9622 121.016 38.0573 121.255C38.1483 121.493 38.1834 121.734 38.1624 121.98C38.135 122.228 38.07 122.466 37.9674 122.694L36.4599 125.469C36.2575 125.842 36.1995 126.156 36.2856 126.412C36.3654 126.67 36.5625 126.884 36.8771 127.055C37.1834 127.221 37.5268 127.349 37.9074 127.437C38.2838 127.524 38.6693 127.594 39.0637 127.647C39.1106 127.818 39.1176 128.017 39.0845 128.246C39.0514 128.474 38.9918 128.678 38.9057 128.856C38.6135 128.831 38.296 128.78 37.953 128.7C37.6037 128.623 37.2582 128.524 36.9167 128.403C36.5729 128.286 36.2623 128.152 35.985 128.001C35.5835 127.783 35.2701 127.517 35.0448 127.201C34.813 126.888 34.6934 126.531 34.686 126.13C34.6744 125.727 34.8001 125.283 35.0631 124.799L36.4425 122.26C36.5661 122.032 36.6513 121.821 36.6979 121.627C36.7382 121.434 36.7237 121.239 36.6546 121.04Z" fill="#FF7963"/>
<path d="M19.9542 114.532C20.4332 114.025 20.9371 113.695 21.4659 113.54C21.9915 113.389 22.5165 113.396 23.0408 113.561C23.5586 113.727 24.0501 114.03 24.5155 114.47L26.0503 115.921L25.2007 116.82C25.088 116.72 24.9308 116.577 24.729 116.393C24.5207 116.209 24.3207 116.026 24.129 115.845C23.9307 115.664 23.7837 115.528 23.6879 115.437C23.3593 115.127 23.0382 114.962 22.7245 114.944C22.4108 114.927 22.1212 114.996 21.8557 115.154C21.5868 115.308 21.3585 115.484 21.1708 115.682C20.9798 115.884 20.8165 116.122 20.6808 116.396C20.5418 116.666 20.4915 116.956 20.5301 117.265C20.5655 117.577 20.7474 117.888 21.0759 118.199C21.2162 118.332 21.3771 118.484 21.5585 118.655C21.7332 118.827 21.901 118.992 22.0621 119.151L27.8636 113.017C27.9722 113.087 28.0828 113.169 28.1953 113.263C28.3079 113.356 28.4104 113.447 28.5028 113.534C28.5815 113.608 28.6723 113.701 28.7754 113.811C28.8784 113.922 28.9663 114.028 29.0391 114.129L22.4608 121.084L22.3309 121.088C21.9275 120.719 21.5514 120.377 21.2027 120.06C20.8508 119.746 20.4986 119.423 20.1462 119.09C19.6842 118.653 19.3561 118.18 19.1621 117.673C18.9614 117.165 18.9219 116.645 19.0436 116.112C19.162 115.575 19.4655 115.049 19.9542 114.532Z" fill="#FF7963"/>
<path d="M15.189 109.219C15.346 109.091 15.5535 108.961 15.8113 108.831C16.0691 108.7 16.3219 108.618 16.5695 108.587C16.6137 108.678 16.6634 108.765 16.7185 108.848C16.7736 108.931 16.8303 109.015 16.8884 109.102C17.049 109.299 17.2322 109.438 17.4382 109.52C17.6405 109.604 17.852 109.647 18.0727 109.65C18.2904 109.649 18.5127 109.62 18.7395 109.562C18.9597 109.505 19.1725 109.438 19.3778 109.362L19.3024 109.706C19.0305 109.909 18.7341 110.089 18.4132 110.247C18.0924 110.405 17.7666 110.512 17.4361 110.569C17.0989 110.625 16.7747 110.603 16.4634 110.504C16.1491 110.402 15.8641 110.194 15.6084 109.879C15.5192 109.77 15.4429 109.665 15.3795 109.565C15.3131 109.461 15.2496 109.345 15.189 109.219ZM18.6225 112.272C18.4855 112.335 18.3188 112.377 18.1226 112.397C17.9264 112.417 17.7615 112.409 17.628 112.371C17.3859 111.925 17.3354 111.486 17.4767 111.055C17.6179 110.624 17.9013 110.211 18.3268 109.816L22.1567 106.699C22.3324 106.847 22.5124 107.035 22.6967 107.261C22.8841 107.491 23.0342 107.709 23.147 107.915L19.4211 110.948C19.1253 111.189 18.9199 111.429 18.8049 111.668C18.69 111.908 18.6292 112.109 18.6225 112.272Z" fill="#FF7963"/>
<path d="M13.0464 99.2438C13.6635 98.8626 14.2704 98.6261 14.8671 98.5344C15.4572 98.4412 16.0058 98.5092 16.5129 98.7386C17.0175 98.964 17.4467 99.3632 17.8007 99.9362C18.1571 100.513 18.3212 101.079 18.2928 101.634C18.2644 102.188 18.0764 102.708 17.7288 103.194C17.3772 103.683 16.8968 104.115 16.2877 104.491C15.6706 104.873 15.0669 105.11 14.4768 105.203C13.8801 105.295 13.3295 105.228 12.8249 105.003C12.3163 104.78 11.8851 104.382 11.5311 103.809C11.1747 103.232 11.0107 102.666 11.0391 102.111C11.065 101.553 11.2537 101.029 11.6053 100.541C11.9529 100.055 12.4333 99.6225 13.0464 99.2438ZM15.4375 103.115C15.8021 102.89 16.1257 102.643 16.4083 102.374C16.6843 102.104 16.8668 101.817 16.9558 101.513C17.0408 101.211 16.9805 100.894 16.7751 100.561C16.5721 100.233 16.318 100.041 16.0127 99.9859C15.701 99.9294 15.3625 99.964 14.9974 100.09C14.6282 100.218 14.2613 100.395 13.8966 100.62C13.532 100.846 13.2096 101.094 12.9296 101.367C12.6495 101.64 12.465 101.928 12.376 102.232C12.2846 102.532 12.3403 102.847 12.5433 103.175C12.7487 103.508 13.0073 103.702 13.3191 103.759C13.6308 103.816 13.9713 103.78 14.3404 103.651C14.7071 103.519 15.0728 103.34 15.4375 103.115Z" fill="#FF7963"/>
<path d="M9.80119 93.6841C9.50766 93.8008 9.25323 93.9413 9.0379 94.1055C8.81827 94.2716 8.67125 94.467 8.59683 94.6917C8.52242 94.9164 8.55293 95.179 8.68838 95.4796C8.86446 95.8704 9.19101 96.0849 9.66803 96.1231C10.1407 96.1633 10.7636 96.0092 11.5366 95.6609C12.2924 95.3204 12.787 94.9503 13.0202 94.5507C13.2515 94.1469 13.2676 93.7237 13.0682 93.2814C12.9367 92.9894 12.7463 92.7446 12.497 92.5469C12.2459 92.3449 11.9915 92.1702 11.7339 92.0228C11.7508 91.8653 11.8169 91.6909 11.9321 91.4995C12.0411 91.3057 12.1652 91.1568 12.3043 91.0528C12.7236 91.2152 13.1132 91.4607 13.4731 91.7894C13.833 92.118 14.1165 92.5121 14.3235 92.9716C14.5325 93.4354 14.6275 93.8756 14.6086 94.2922C14.5835 94.7065 14.4668 95.0897 14.2587 95.4418C14.0505 95.7939 13.7709 96.1137 13.4199 96.401C13.0627 96.6859 12.6565 96.9309 12.2013 97.1361C11.3982 97.4979 10.6886 97.6601 10.0724 97.6226C9.45428 97.5808 8.93543 97.4038 8.51584 97.0918C8.09625 96.7797 7.7839 96.396 7.57879 95.9408C7.40464 95.5543 7.30879 95.1868 7.29122 94.8383C7.27366 94.4897 7.317 94.1731 7.42124 93.8885C7.52118 93.6058 7.66485 93.3628 7.85225 93.1596C8.03964 92.9563 8.25358 92.8005 8.49407 92.6922C8.73456 92.5838 8.9506 92.5588 9.1422 92.6171C9.32757 92.6731 9.4754 92.8234 9.5857 93.0682C9.63794 93.1842 9.68009 93.2892 9.71213 93.3832C9.74418 93.4773 9.77386 93.5776 9.80119 93.6841Z" fill="#FF7963"/>
<path d="M9.29457 88.4068L8.21918 88.7316L7.25688 85.546L7.08103 85.5991C6.78344 85.689 6.52359 85.8143 6.30147 85.9749C6.07349 86.1323 5.9137 86.3282 5.82211 86.5625C5.72601 86.7982 5.72427 87.0693 5.81689 87.376C5.95038 87.8178 6.23693 88.0905 6.67655 88.1938C7.11031 88.2941 7.65634 88.2448 8.31465 88.0459L8.77457 87.907C9.18488 87.783 9.54236 87.6307 9.847 87.4502C10.1503 87.2651 10.3662 87.035 10.4947 86.76C10.6187 86.4864 10.6194 86.1466 10.4968 85.7408C10.3946 85.4027 10.2492 85.0923 10.0605 84.8098C9.86737 84.5286 9.6573 84.2649 9.43035 84.0185C9.51217 83.8659 9.63168 83.724 9.78889 83.5929C9.94473 83.4572 10.0959 83.355 10.2424 83.2861C10.5704 83.5413 10.8724 83.8732 11.1484 84.2819C11.4244 84.6906 11.6332 85.1294 11.7749 85.5983C11.9397 86.1439 11.9826 86.6279 11.9035 87.0503C11.82 87.4741 11.6456 87.8417 11.3805 88.1531C11.1108 88.4658 10.7806 88.7328 10.3899 88.9542C9.99781 89.171 9.57406 89.3482 9.11865 89.4858C8.4423 89.6901 7.80677 89.7689 7.21206 89.7222C6.61598 89.671 6.09905 89.4828 5.66126 89.1574C5.2221 88.8276 4.90582 88.3425 4.71241 87.7022C4.53534 87.1161 4.5147 86.5835 4.65048 86.1046C4.78627 85.6256 5.04152 85.2164 5.41624 84.8769C5.78644 84.5387 6.24209 84.2879 6.78316 84.1244C7.01312 84.055 7.21199 84.0047 7.37976 83.9737C7.54166 83.9396 7.72636 83.9158 7.93387 83.9023L9.29457 88.4068Z" fill="#FF7963"/>
<path d="M10.0043 81.0282C9.82616 81.048 9.62448 81.0264 9.39925 80.9633C9.16938 80.9009 8.98368 80.817 8.84216 80.7114C8.95114 80.3879 9.04079 80.0485 9.1111 79.6932C9.18142 79.3379 9.18861 78.9906 9.13268 78.6514C9.07292 78.2889 8.94911 78.0157 8.76127 77.8318C8.57265 77.6433 8.35984 77.5686 8.12282 77.6077C7.93692 77.6383 7.77878 77.736 7.6484 77.9007C7.51337 78.0662 7.41772 78.2968 7.36144 78.5925L7.195 79.4506C7.13168 79.7904 7.03394 80.1097 6.90177 80.4083C6.76884 80.7024 6.58798 80.9518 6.35918 81.1566C6.12962 81.3567 5.83824 81.4859 5.48503 81.5441C5.05282 81.6154 4.6634 81.5698 4.31677 81.4074C3.96473 81.241 3.67403 80.9834 3.44465 80.6346C3.20987 80.2818 3.05302 79.8661 2.9741 79.3874C2.91051 79.0017 2.89653 78.5839 2.93217 78.134C2.96239 77.6803 3.02114 77.2983 3.10841 76.9879C3.29742 76.9472 3.51075 76.9526 3.74838 77.0042C3.98525 77.051 4.17057 77.1327 4.30433 77.249C4.23416 77.5184 4.17748 77.8261 4.13428 78.1722C4.08567 78.5143 4.08972 78.8574 4.14642 79.2013C4.19315 79.4848 4.30041 79.701 4.46818 79.85C4.63595 79.999 4.8337 80.0547 5.06143 80.0171C5.24268 79.9873 5.38494 79.8946 5.4882 79.7391C5.58682 79.5844 5.66464 79.3616 5.72168 79.0705L5.901 78.1602C6.00032 77.6044 6.19241 77.1335 6.47727 76.7476C6.76137 76.357 7.17763 76.1166 7.72603 76.0262C8.37668 75.9189 8.93198 76.0875 9.39194 76.532C9.8519 76.9765 10.1508 77.6171 10.2888 78.4536C10.37 78.9462 10.3757 79.4155 10.306 79.8614C10.2356 80.3027 10.135 80.6916 10.0043 81.0282Z" fill="#FF7963"/>
<path d="M9.04827 73.2229C8.86907 73.2195 8.67189 73.1719 8.45675 73.0801C8.23689 72.9885 8.06364 72.8812 7.93699 72.7582C8.08698 72.4515 8.21986 72.1266 8.33563 71.7834C8.4514 71.4402 8.50354 71.0968 8.49205 70.7531C8.47978 70.386 8.39242 70.099 8.22999 69.8924C8.0674 69.681 7.86606 69.5794 7.62597 69.5874C7.43767 69.5937 7.2682 69.6701 7.11758 69.8165C6.96224 69.9631 6.83751 70.1793 6.74339 70.4652L6.46714 71.2945C6.36031 71.6232 6.22201 71.9271 6.05225 72.2062C5.88234 72.4805 5.67067 72.7043 5.41726 72.8778C5.1637 73.0465 4.85803 73.1368 4.50025 73.1488C4.06245 73.1634 3.68222 73.0677 3.35957 72.8617C3.03206 72.6512 2.77719 72.3581 2.59497 71.9824C2.40788 71.6022 2.30624 71.1697 2.29002 70.6848C2.27696 70.2941 2.31725 69.878 2.41088 69.4366C2.49965 68.9906 2.60742 68.6194 2.73418 68.323C2.92688 68.3071 3.1377 68.3401 3.36666 68.422C3.59546 68.4992 3.76863 68.6041 3.88617 68.7369C3.78169 68.9949 3.68561 69.2926 3.59792 69.6302C3.50537 69.9632 3.46492 70.3038 3.47657 70.6522C3.48617 70.9394 3.5645 71.1677 3.71155 71.3371C3.8586 71.5066 4.04746 71.5875 4.27813 71.5798C4.46173 71.5736 4.61479 71.5002 4.73733 71.3594C4.85517 71.2188 4.96122 71.0079 5.05551 70.7267L5.35129 69.8473C5.52181 69.309 5.7733 68.867 6.10578 68.5213C6.4381 68.1708 6.88201 67.9863 7.43751 67.9678C8.09657 67.9457 8.62533 68.1849 9.0238 68.6853C9.42227 69.1857 9.63567 69.8595 9.664 70.7069C9.68069 71.2059 9.62558 71.672 9.49867 72.1051C9.37161 72.5335 9.22148 72.9061 9.04827 73.2229Z" fill="#FF7963"/>
<path d="M9.91726 62.3191C9.93766 62.5482 9.93355 62.8105 9.90495 63.1058C9.87634 63.4012 9.83004 63.6593 9.76605 63.8803L4.68162 63.3879C4.43783 63.3642 4.25067 63.3911 4.12015 63.4683C3.98494 63.5452 3.90598 63.7008 3.88328 63.9352L3.86693 64.104C3.68469 64.1289 3.49981 64.1323 3.31228 64.1141C3.2232 64.1055 3.13223 64.092 3.03938 64.0735C2.94183 64.0546 2.84496 64.0286 2.74878 63.9957C2.74305 63.8106 2.74367 63.6332 2.75064 63.4635C2.75761 63.2938 2.76631 63.155 2.77676 63.0472L2.79719 62.8362C2.83306 62.4659 2.97842 62.1865 3.23327 61.9983C3.48857 61.8053 3.82016 61.7286 4.22804 61.7681L9.91726 62.3191ZM0.877053 63.4595C0.633263 63.4359 0.419572 63.3702 0.23598 63.2625C0.19349 63.1638 0.163101 63.0378 0.144813 62.8846C0.122291 62.7262 0.118068 62.5744 0.132144 62.429C0.145312 62.2931 0.178595 62.1449 0.231994 61.9844C0.280704 61.8235 0.334704 61.7057 0.393994 61.631C0.486704 61.6021 0.595142 61.5819 0.719307 61.5702C0.843926 61.5539 0.957807 61.5507 1.06095 61.5607C1.30474 61.5843 1.52077 61.6502 1.70906 61.7584C1.75336 61.8384 1.78375 61.9644 1.80022 62.1363C1.81715 62.3036 1.81903 62.4552 1.80586 62.5911C1.79178 62.7365 1.76062 62.8873 1.71236 63.0435C1.66456 63.195 1.61078 63.3105 1.55104 63.3899C1.34551 63.4599 1.12084 63.4831 0.877053 63.4595Z" fill="#FF7963"/>
<path d="M4.001 55.278C4.07294 54.9659 4.2224 54.7683 4.44938 54.6853C4.67283 54.5966 4.95439 54.5914 5.29404 54.6697L11.0773 56.0026C11.0689 56.2278 11.0313 56.485 10.9647 56.7742C10.8981 57.0633 10.8182 57.3156 10.725 57.531L3.93658 55.9664L3.86771 55.8563L4.001 55.278ZM10.4973 51.6926C10.7405 51.7486 10.9766 51.7837 11.2053 51.7978C11.4295 51.8108 11.6325 51.7899 11.8143 51.7351C11.8843 51.8721 11.9295 52.0323 11.95 52.2159C11.9751 52.4006 11.9665 52.5847 11.9242 52.7683C11.8544 53.0712 11.7226 53.2656 11.5288 53.3514C11.3361 53.4327 11.0813 53.4368 10.7646 53.3638L7.34288 52.5752C6.90225 52.4736 6.57056 52.4552 6.34781 52.5199C6.12047 52.5835 5.96924 52.7782 5.89413 53.1041C5.84441 53.3198 5.84272 53.5684 5.88904 53.8497C5.93537 54.1311 6.03077 54.4093 6.17524 54.6842C6.31971 54.9592 6.51501 55.2024 6.76115 55.4138L5.32222 55.0822C5.04532 54.6897 4.83267 54.2491 4.68425 53.7606C4.53689 53.2674 4.52034 52.773 4.63459 52.2773C4.73297 51.8504 4.91434 51.5248 5.17871 51.3006C5.44308 51.0763 5.7622 50.9396 6.13606 50.8904C6.50992 50.8413 6.91258 50.8664 7.34402 50.9658L10.4973 51.6926Z" fill="#FF7963"/>
<path d="M8.98301 42.2702C9.05564 42.453 9.18942 42.6134 9.38434 42.7513C9.58091 42.8849 9.80499 42.9985 10.0566 43.0922L13.9167 44.5297C14.442 44.7253 14.8743 44.914 15.2138 45.0957C15.5549 45.2729 15.8287 45.4553 16.0354 45.6429C16.2436 45.826 16.4075 46.0202 16.5271 46.2256C16.7202 46.5438 16.8247 46.9245 16.8406 47.3677C16.8609 47.8125 16.7773 48.2865 16.59 48.7897C16.4371 49.2003 16.2392 49.5965 15.9964 49.9786C15.7581 50.3623 15.5195 50.6856 15.2809 50.9486C15.0971 50.8751 14.9125 50.7636 14.7269 50.6141C14.5457 50.4662 14.4117 50.3132 14.3248 50.1552C14.5563 49.9248 14.7705 49.6602 14.9672 49.3615C15.1655 49.0584 15.314 48.7745 15.4126 48.5096C15.572 48.0815 15.615 47.723 15.5416 47.4343C15.4682 47.1456 15.3125 46.9092 15.0744 46.725C14.8408 46.5425 14.5607 46.3905 14.2341 46.2688L9.34107 44.4467C8.89966 44.2823 8.54739 44.0405 8.28425 43.7214C8.02275 43.3978 7.93832 42.9969 8.03095 42.5188C8.14431 42.4303 8.29576 42.361 8.48529 42.311C8.67482 42.2609 8.84072 42.2473 8.98301 42.2702ZM9.44591 49.0847C8.66462 48.7937 8.06398 48.4293 7.644 47.9915C7.22403 47.5536 6.96057 47.0936 6.85362 46.6115C6.74226 46.1277 6.7663 45.6717 6.92575 45.2435C7.07205 44.8507 7.25739 44.5352 7.48178 44.2971C7.70781 44.0546 7.94912 43.8655 8.20571 43.7298C8.4623 43.5942 8.71262 43.4888 8.95667 43.4139L10.1225 44.0893C9.6558 44.1819 9.243 44.3523 8.88412 44.6007C8.52689 44.8446 8.2891 45.1255 8.17075 45.4433C8.07705 45.6949 8.08011 45.9499 8.17993 46.2082C8.27698 46.4605 8.47711 46.7059 8.78031 46.9445C9.0791 47.1814 9.48671 47.396 10.0032 47.5883C10.7668 47.8727 11.3596 47.9678 11.7817 47.8737C12.1994 47.7779 12.4657 47.5756 12.5808 47.2666C12.709 46.9223 12.7211 46.5523 12.6171 46.1567C12.5087 45.7595 12.3095 45.4038 12.0193 45.0897L13.213 45.2854C13.3745 45.4863 13.5126 45.7363 13.6274 46.0354C13.7438 46.33 13.8154 46.6507 13.8421 46.9974C13.8644 47.3425 13.8114 47.6872 13.6832 48.0315C13.4909 48.5479 13.1894 48.9257 12.7786 49.1648C12.3651 49.3978 11.8747 49.5067 11.3074 49.4914C10.7374 49.4701 10.1168 49.3346 9.44591 49.0847Z" fill="#FF7963"/>
<path d="M12.0942 30.4397L12.0724 30.3117L12.9302 29.101L14.014 29.8689C14.1754 29.9833 14.3113 30.0767 14.4216 30.1491C14.5281 30.2188 14.6601 30.3094 14.8177 30.4211L19.1183 33.4683C19.2259 33.5445 19.3264 33.6186 19.4198 33.6905C19.5093 33.7597 19.6117 33.8352 19.727 33.9169L20.8223 34.6929L20.4465 35.2233C20.2804 35.4577 20.0786 35.5918 19.8411 35.6256C19.5998 35.6566 19.3542 35.5837 19.1044 35.4067L12.0942 30.4397ZM18.2991 28.6362C18.4 28.6731 18.5064 28.7225 18.6183 28.7845C18.7303 28.8465 18.8228 28.9033 18.8958 28.9551C18.9688 29.0068 19.0512 29.0738 19.1429 29.1562C19.2347 29.2385 19.3166 29.3225 19.3887 29.4082L17.8978 31.5124C17.8351 31.6008 17.7534 31.7161 17.6527 31.8583C17.5481 31.9978 17.4427 32.1425 17.3365 32.2923C17.2264 32.4395 17.1306 32.5707 17.0489 32.686L15.9881 31.9345C16.066 31.8164 16.158 31.6825 16.2642 31.5326C16.3666 31.38 16.4681 31.2326 16.5689 31.0904C16.6658 30.9454 16.7456 30.8288 16.8082 30.7404L18.2991 28.6362ZM15.3932 25.6248C15.5029 25.6736 15.6033 25.7275 15.6945 25.7863C15.7883 25.8412 15.8717 25.8945 15.9448 25.9463C16.0216 26.0007 16.109 26.0771 16.2068 26.1753C16.3035 26.2669 16.3896 26.3654 16.465 26.4708L14.5656 29.1515C14.503 29.2399 14.4213 29.3551 14.3206 29.4974C14.2198 29.6396 14.1144 29.7842 14.0044 29.9314C13.8943 30.0786 13.7965 30.2084 13.711 30.321L12.6157 29.5449L15.3932 25.6248ZM22.3345 30.1879C22.7265 30.4657 22.9673 30.7287 23.057 30.9769C23.1493 31.2213 23.0757 31.5126 22.8361 31.8508L20.5078 35.1368L19.4413 34.3812C19.5659 34.1808 19.6892 33.9824 19.8111 33.7859C19.933 33.5894 20.0797 33.3701 20.2513 33.128L22.3345 30.1879Z" fill="#FF7963"/>
<path d="M19.3627 25.64C19.3884 25.4457 19.4444 25.2568 19.5306 25.0735C19.6168 24.8901 19.7158 24.7379 19.8277 24.6169C19.9621 24.4717 20.097 24.3847 20.2326 24.3561C20.3713 24.324 20.5346 24.3243 20.7226 24.357L28.2368 25.6288C28.2071 25.8066 28.151 25.9921 28.0685 26.1853C27.9892 26.3751 27.8888 26.5356 27.7673 26.667C27.6362 26.8088 27.498 26.8992 27.3529 26.9382C27.211 26.9737 27.0494 26.975 26.8681 26.9421L19.3627 25.64ZM22.1131 22.3229C22.1505 22.2547 22.2057 22.1743 22.2787 22.0814C22.3483 21.9854 22.4199 21.8976 22.4934 21.818C22.599 21.7039 22.7018 21.6066 22.802 21.526C22.9054 21.442 23.0061 21.3747 23.1041 21.3242L23.2207 21.3647L24.2571 25.3741L24.2848 25.9579L25.2284 29.2559C25.1978 29.3238 25.1427 29.4076 25.0633 29.5074C24.9905 29.6069 24.9157 29.6981 24.839 29.7811C24.7398 29.8883 24.6336 29.9858 24.5204 30.0735C24.4106 30.1645 24.3032 30.232 24.1983 30.2761L24.0821 30.2456L22.9403 25.8404L22.9206 25.2062L22.1131 22.3229Z" fill="#FF7963"/>
<path d="M26.1501 18.5828C26.4071 18.3688 26.668 18.2956 26.9327 18.3633C27.201 18.4279 27.4603 18.6104 27.7105 18.9108L32.7428 24.9535C32.9658 25.2213 33.08 25.4541 33.0854 25.652C33.0944 25.8468 32.9722 26.0496 32.7188 26.2606L32.2628 26.6404L32.1334 26.6286L25.7854 19.0061L25.7972 18.8767L26.1501 18.5828ZM32.4456 17.8729C32.9791 18.5136 33.3194 19.1282 33.4663 19.7169C33.6169 20.3025 33.6186 20.8344 33.4713 21.3126C33.3209 21.7872 33.0702 22.1707 32.7192 22.463C32.3681 22.7554 31.9875 22.9498 31.5773 23.0462C31.1642 23.1389 30.7571 23.2021 30.356 23.2357L29.7349 22.1808C30.0768 22.1718 30.4345 22.1376 30.8078 22.078C31.1817 22.0117 31.4954 21.8731 31.7487 21.6621C31.9478 21.4964 32.0664 21.2781 32.1045 21.0073C32.1462 20.7335 32.0962 20.4196 31.9546 20.0656C31.81 19.7079 31.5613 19.3173 31.2087 18.8938C30.859 18.474 30.5338 18.1717 30.2329 17.9871C29.9356 17.7994 29.6667 17.7047 29.426 17.7028C29.1824 17.6973 28.9755 17.7654 28.8054 17.907C28.6353 18.0487 28.4917 18.248 28.3746 18.5048C28.2612 18.7587 28.2071 19.0581 28.2124 19.4031C28.2147 19.7444 28.309 20.1226 28.4952 20.5376L27.5356 19.8932C27.3928 19.5892 27.3157 19.2427 27.3043 18.8537C27.2936 18.4581 27.3643 18.0682 27.5164 17.6841C27.6691 17.2933 27.9156 16.9563 28.2558 16.6729C28.6757 16.3233 29.1229 16.15 29.5975 16.1532C30.0721 16.1564 30.5515 16.3088 31.0357 16.6105C31.5205 16.9056 31.9905 17.3264 32.4456 17.8729Z" fill="#FF7963"/>
<path d="M35.4291 16.7626L34.8281 15.8135L37.6397 14.0333L37.5414 13.8781C37.3751 13.6154 37.1849 13.3986 36.9707 13.2276C36.758 13.0501 36.5264 12.9486 36.2761 12.9231C36.0233 12.8936 35.7616 12.9646 35.491 13.1359C35.101 13.3828 34.9151 13.7319 34.9332 14.1832C34.9528 14.6279 35.1465 15.1408 35.5144 15.7218L35.7714 16.1277C36.0007 16.4899 36.2431 16.7935 36.4987 17.0387C36.7582 17.2813 37.0377 17.4277 37.3371 17.4779C37.6339 17.5241 37.9614 17.4338 38.3196 17.207C38.618 17.0181 38.8781 16.7949 39.0998 16.5374C39.319 16.276 39.5168 16.003 39.6934 15.7184C39.8624 15.7563 40.0311 15.8335 40.1995 15.9498C40.372 16.0636 40.511 16.1819 40.6165 16.3046C40.4585 16.689 40.2196 17.0689 39.8997 17.4442C39.5799 17.8195 39.213 18.1382 38.7991 18.4003C38.3176 18.7052 37.8627 18.8761 37.4346 18.913C37.0039 18.946 36.603 18.8765 36.2321 18.7044C35.8586 18.5283 35.5129 18.2817 35.195 17.9645C34.881 17.6448 34.5968 17.284 34.3423 16.882C33.9644 16.2851 33.7183 15.6939 33.604 15.1084C33.4937 14.5204 33.5367 13.9719 33.7329 13.463C33.9331 12.9515 34.3158 12.5169 34.8809 12.1591C35.3983 11.8315 35.9058 11.669 36.4036 11.6716C36.9014 11.6742 37.3641 11.8106 37.7916 12.0807C38.2165 12.3468 38.5802 12.7186 38.8825 13.1962C39.011 13.3992 39.1127 13.5773 39.1875 13.7306C39.2637 13.8775 39.3361 14.0491 39.4047 14.2454L35.4291 16.7626Z" fill="#FF7963"/>
<path d="M44.6454 7.43094C44.7307 7.61466 44.805 7.84759 44.8684 8.12972C44.9318 8.41185 44.9483 8.6768 44.9179 8.92459C44.8183 8.94486 44.7216 8.97154 44.6279 9.00463C44.5342 9.03773 44.4384 9.07181 44.3405 9.10688C44.1097 9.21395 43.9296 9.35726 43.8 9.53682C43.6685 9.71211 43.5743 9.9064 43.5175 10.1197C43.465 10.331 43.4384 10.5536 43.4379 10.7875C43.4397 11.0152 43.4522 11.2379 43.4753 11.4556L43.1607 11.2978C43.0307 10.9843 42.9287 10.6525 42.8546 10.3027C42.7806 9.95278 42.7568 9.61069 42.7834 9.2764C42.8123 8.93585 42.913 8.6269 43.0855 8.34954C43.2622 8.07021 43.5343 7.84528 43.9018 7.67477C44.0299 7.61529 44.1504 7.56717 44.2632 7.53042C44.3802 7.49169 44.5076 7.45853 44.6454 7.43094ZM40.8402 10.0068C40.8129 9.85849 40.8137 9.68676 40.8426 9.49162C40.8715 9.29647 40.9203 9.13879 40.9892 9.01857C41.4817 8.89386 41.9194 8.95299 42.3021 9.19597C42.6849 9.43895 43.0153 9.81528 43.2934 10.3249L45.3722 14.8048C45.185 14.9384 44.9589 15.0666 44.694 15.1896C44.4249 15.3145 44.1767 15.4063 43.9495 15.465L41.9271 11.1069C41.7665 10.7609 41.5844 10.5027 41.3807 10.3324C41.1771 10.162 40.9969 10.0535 40.8402 10.0068Z" fill="#FF7963"/>
<path d="M48.8946 4.79124C48.7887 4.45422 48.7693 4.19617 48.8364 4.01707C48.9067 3.83207 49.0968 3.69084 49.4069 3.5934L49.9798 3.41334L50.0861 3.4688L52.2659 10.4046C52.3223 10.5843 52.4102 10.7147 52.5295 10.7957C52.6518 10.8708 52.8141 10.8766 53.0163 10.813L53.9195 10.5292C54.0724 10.7329 54.1913 10.9696 54.276 11.2392C54.2929 11.2931 54.3083 11.35 54.3222 11.4098C54.3406 11.4682 54.3478 11.5227 54.344 11.5733C54.1292 11.6754 53.8898 11.7778 53.6258 11.8805C53.3678 11.9863 53.1062 12.0808 52.8411 12.1642C52.3603 12.3153 51.9537 12.3097 51.6213 12.1476C51.2934 11.984 51.0532 11.6596 50.9007 11.1743L48.8946 4.79124ZM52.3674 4.907C52.4671 5.08302 52.5445 5.25865 52.5996 5.4339C52.6589 5.62263 52.6966 5.81321 52.7127 6.00567L50.4508 6.67949L48.5943 7.29996C48.4929 7.13434 48.4126 6.95717 48.3532 6.76844C48.2982 6.5932 48.2634 6.40415 48.2491 6.2013L50.1469 5.64187L52.3674 4.907Z" fill="#FF7963"/>
</svg>
